<svg width="16" height="17" viewBox="0 0 16 17" fill="none" xmlns="http://www.w3.org/2000/svg">
  <g clip-path="url(#clip0)">
    <path fill-rule="evenodd" clip-rule="evenodd"
          d="M10.2856 14.2142L7.78515 12.0705L5.28472 14.2142C5.09519 14.2133 4.91373 14.1374 4.78004 14.003C4.64634 13.8687 4.57129 13.6869 4.57129 13.4974V3.49907C4.57129 3.30986 4.64645 3.1284 4.78025 2.9946C4.91404 2.86081 5.0955 2.78564 5.28472 2.78564H10.2856C10.4748 2.78564 10.6563 2.86081 10.79 2.9946C10.9238 3.1284 10.999 3.30986 10.999 3.49907V13.4974C10.999 13.6869 10.924 13.8687 10.7903 14.003C10.6566 14.1374 10.4751 14.2133 10.2856 14.2142ZM10.2856 3.49907H5.28472V13.271L7.31524 11.5286L7.77829 11.1307L8.24476 11.5286L10.2787 13.271L10.2856 3.49907Z"
          fill="#414141"/>
  </g>
  <defs>
    <clipPath id="clip0">
      <rect width="6.42771" height="11.4286" fill="white" transform="translate(4.57129 2.78564)"/>
    </clipPath>
  </defs>
</svg>

