<svg width="28" height="28" viewBox="0 0 28 28" fill="none" xmlns="http://www.w3.org/2000/svg">
  <g clip-path="url(#clip0)">
    <path fill-rule="evenodd" clip-rule="evenodd"
          d="M18 24L13.6242 20.2485L9.2485 24C8.91683 23.9984 8.59928 23.8655 8.36531 23.6305C8.13134 23.3954 8 23.0772 8 22.7455V5.2485C8 4.91738 8.13154 4.59982 8.36568 4.36568C8.59982 4.13154 8.91738 4 9.2485 4H18C18.3311 4 18.6487 4.13154 18.8828 4.36568C19.117 4.59982 19.2485 4.91738 19.2485 5.2485V22.7455C19.2485 23.0772 19.1172 23.3954 18.8832 23.6305C18.6492 23.8655 18.3317 23.9984 18 24Z"
          fill="var(--fillColor)"/>
  </g>
  <defs>
    <clipPath id="clip0">
      <rect width="11.2485" height="20" fill="white" transform="translate(8 4)"/>
    </clipPath>
  </defs>

  <g clip-path="url(#clip0)">
    <path fill-rule="evenodd" clip-rule="evenodd"
          d="M18 24L13.6242 20.2485L9.2485 24C8.91683 23.9984 8.59928 23.8655 8.36531 23.6305C8.13134 23.3954 8 23.0772 8 22.7455V5.2485C8 4.91738 8.13154 4.59982 8.36568 4.36568C8.59982 4.13154 8.91738 4 9.2485 4H18C18.3311 4 18.6487 4.13154 18.8828 4.36568C19.117 4.59982 19.2485 4.91738 19.2485 5.2485V22.7455C19.2485 23.0772 19.1172 23.3954 18.8832 23.6305C18.6492 23.8655 18.3317 23.9984 18 24ZM18 5.2485H9.2485V22.3493L12.8019 19.3001L13.6122 18.6038L14.4286 19.3001L17.988 22.3493L18 5.2485Z"
          fill="currentColor"/>
  </g>
  <defs>
    <clipPath id="clip0">
      <rect width="11.2485" height="20" fill="white" transform="translate(8 4)"/>
    </clipPath>
  </defs>
</svg>
