<svg width="11" height="18" viewBox="0 0 11 18" fill="none" xmlns="http://www.w3.org/2000/svg">
  <path fill-rule="evenodd" clip-rule="evenodd"
        d="M9.42861 17.5716L5.67796 14.356L1.92732 17.5716C1.64303 17.5702 1.37084 17.4563 1.1703 17.2548C0.969757 17.0533 0.857174 16.7806 0.857178 16.4963L0.857178 1.49885C0.857178 1.21503 0.969925 0.942839 1.17062 0.742148C1.37131 0.541458 1.6435 0.428711 1.92732 0.428711L9.42861 0.428711C9.71243 0.428711 9.98462 0.541458 10.1853 0.742148C10.386 0.942839 10.4987 1.21503 10.4987 1.49885V16.4963C10.4988 16.7806 10.3862 17.0533 10.1856 17.2548C9.98508 17.4563 9.7129 17.5702 9.42861 17.5716ZM9.42861 1.49885H1.92732V16.1567L4.97311 13.5431L5.66767 12.9463L6.36738 13.5431L9.41832 16.1567L9.42861 1.49885Z"
        fill="#75388D"/>
</svg>
