<svg width="24" height="24" viewBox="0 0 24 24" fill="none" xmlns="http://www.w3.org/2000/svg">
  <g clip-path="url(#clip0)">
    <path fill-rule="evenodd" clip-rule="evenodd"
          d="M15.4289 20.5716L11.6782 17.356L7.92756 20.5716C7.64327 20.5702 7.37109 20.4563 7.17055 20.2548C6.97 20.0533 6.85742 19.7806 6.85742 19.4963V4.49885C6.85742 4.21503 6.97017 3.94284 7.17086 3.74215C7.37155 3.54146 7.64374 3.42871 7.92756 3.42871H15.4289C15.7127 3.42871 15.9849 3.54146 16.1856 3.74215C16.3862 3.94284 16.499 4.21503 16.499 4.49885V19.4963C16.499 19.7806 16.3864 20.0533 16.1859 20.2548C15.9853 20.4563 15.7131 20.5702 15.4289 20.5716ZM15.4289 4.49885H7.92756V19.1567L10.9734 16.5431L11.6679 15.9463L12.3676 16.5431L15.4186 19.1567L15.4289 4.49885Z"
          fill="#414141"/>
  </g>
  <defs>
    <clipPath id="clip0">
      <rect width="9.64157" height="17.1429" fill="white" transform="translate(6.85742 3.42871)"/>
    </clipPath>
  </defs>
</svg>
