<svg width="24" height="22" viewBox="0 0 24 22" fill="none" xmlns="http://www.w3.org/2000/svg">
  <path fill-rule="evenodd" clip-rule="evenodd"
        d="M22.2421 12.3125H1.71476C1.41279 12.3125 1.12318 12.1925 0.909657 11.979C0.69613 11.7655 0.576172 11.4759 0.576172 11.1739C0.576172 10.8719 0.69613 10.5823 0.909657 10.3688C1.12318 10.1553 1.41279 10.0353 1.71476 10.0353H22.1985C22.5005 10.0353 22.7901 10.1553 23.0036 10.3688C23.2171 10.5823 23.3371 10.8719 23.3371 11.1739C23.3371 11.4759 23.2171 11.7655 23.0036 11.979C22.7901 12.1925 22.5005 12.3125 22.1985 12.3125H22.2421ZM22.2421 3.21468H1.71476C1.41279 3.21468 1.12318 3.09472 0.909657 2.88119C0.69613 2.66767 0.576172 2.37806 0.576172 2.07609C0.576172 1.77412 0.69613 1.48451 0.909657 1.27099C1.12318 1.05746 1.41279 0.9375 1.71476 0.9375H22.1985C22.5005 0.9375 22.7901 1.05746 23.0036 1.27099C23.2171 1.48451 23.3371 1.77412 23.3371 2.07609C23.3371 2.37806 23.2171 2.66767 23.0036 2.88119C22.7901 3.09472 22.5005 3.21468 22.1985 3.21468H22.2421ZM1.71476 19.144H22.1985C22.499 19.144 22.7872 19.2634 22.9997 19.4759C23.2122 19.6884 23.3316 19.9767 23.3316 20.2772C23.3316 20.5777 23.2122 20.8659 22.9997 21.0784C22.7872 21.2909 22.499 21.4103 22.1985 21.4103H1.71476C1.41423 21.4103 1.12601 21.2909 0.913509 21.0784C0.701004 20.8659 0.58162 20.5777 0.58162 20.2772C0.58162 19.9767 0.701004 19.6884 0.913509 19.4759C1.12601 19.2634 1.41423 19.144 1.71476 19.144Z"
        fill="currentColor"/>
</svg>
