<svg width="28" height="28" viewBox="0 0 28 28" fill="none" xmlns="http://www.w3.org/2000/svg">
  <g clip-path="url(#clip0)">
    <path fill-rule="evenodd" clip-rule="evenodd"
          d="M22.7515 22.497H5.2485C4.91738 22.497 4.59982 22.3655 4.36568 22.1313C4.13154 21.8972 4 21.5796 4 21.2485V8.7515C4 8.41982 4.13134 8.10164 4.36531 7.86655C4.59928 7.63146 4.91683 7.49859 5.2485 7.497H8.37575L8.97599 6.2485C8.97599 6.2485 9.55822 5 10.2485 5H17.7515C18.4418 5 19.006 6.2485 19.006 6.2485L19.6062 7.497H22.7335C23.0652 7.49859 23.3827 7.63146 23.6167 7.86655C23.8506 8.10164 23.982 8.41982 23.982 8.7515V21.2485C23.982 21.5765 23.853 21.8914 23.6227 22.125C23.3924 22.3586 23.0795 22.4923 22.7515 22.497ZM22.7515 9.37575C22.7515 9.21656 22.6883 9.06388 22.5757 8.95132C22.4631 8.83875 22.3105 8.77551 22.1513 8.77551H18.958C18.958 8.72149 17.9976 7.05282 17.9976 7.05282C17.9976 7.05282 17.5534 6.27251 17.0012 6.27251H10.9988C10.4466 6.27251 10.0024 7.05282 10.0024 7.05282C10.0024 7.05282 9.02401 8.69748 9.04202 8.7515H5.87275C5.71356 8.7515 5.56088 8.81474 5.44832 8.92731C5.33575 9.03987 5.27251 9.19255 5.27251 9.35174V20.6062C5.27251 20.7654 5.33575 20.9181 5.44832 21.0307C5.56088 21.1432 5.71356 21.2065 5.87275 21.2065H22.1212C22.2804 21.2065 22.4331 21.1432 22.5457 21.0307C22.6582 20.9181 22.7215 20.7654 22.7215 20.6062L22.7515 9.37575ZM14.9784 19.904C13.9248 20.115 12.8313 19.9813 11.8595 19.5229C10.8877 19.0644 10.0892 18.3054 9.58204 17.3581C9.07491 16.4108 8.88604 15.3254 9.04336 14.2625C9.20068 13.1995 9.69584 12.2154 10.4556 11.4556C11.2154 10.6958 12.1995 10.2007 13.2625 10.0434C14.3254 9.88604 15.4108 10.0749 16.3581 10.582C17.3054 11.0892 18.0644 11.8877 18.5229 12.8595C18.9813 13.8313 19.115 14.9248 18.904 15.9784C18.71 16.947 18.2337 17.8367 17.5352 18.5352C16.8367 19.2337 15.947 19.71 14.9784 19.904ZM14.8583 11.3445C14.0628 11.1574 13.2279 11.2347 12.4803 11.5648C11.7326 11.8948 11.113 12.4597 10.7152 13.1737C10.3175 13.8876 10.1634 14.7118 10.2763 15.5212C10.3892 16.3307 10.763 17.0812 11.3409 17.6591C11.9188 18.237 12.6693 18.6108 13.4788 18.7237C14.2882 18.8366 15.1124 18.6825 15.8263 18.2848C16.5403 17.887 17.1052 17.2674 17.4352 16.5197C17.7653 15.7721 17.8426 14.9372 17.6555 14.1417C17.4954 13.4614 17.1489 12.8393 16.6548 12.3452C16.1607 11.8511 15.5386 11.5046 14.8583 11.3445Z"
          fill="currentColor"/>
  </g>
  <defs>
    <clipPath id="clip0">
      <rect width="20" height="17.497" fill="white" transform="translate(4 5)"/>
    </clipPath>
  </defs>
</svg>
