<svg width="28" height="28" viewBox="0 0 28 28" fill="none" xmlns="http://www.w3.org/2000/svg">
  <path
      d="M22.749 6.99902H5.24902C4.55902 6.99902 3.99902 7.55902 3.99902 8.25027V20.7502C3.99902 21.4415 4.56146 22.0002 5.25146 22.0002H22.7826C23.4739 22.0002 24.0015 21.4415 24.0015 20.7502L23.999 8.25027C23.999 7.55902 23.4403 6.99902 22.749 6.99902ZM22.7515 20.1252C22.7515 20.469 22.4702 20.7502 22.1265 20.7502H5.87402C5.52902 20.7502 5.25146 20.469 5.25146 20.1252L5.24902 8.87402C5.24902 8.53027 5.52902 8.25027 5.87402 8.25027H22.124C22.4678 8.25027 22.749 8.53027 22.749 8.87402L22.7515 20.1252Z"
      fill="#414141"/>
  <path
      d="M7.12598 9.5H9.62598C9.96973 9.5 10.251 9.77875 10.251 10.1238C10.251 10.4688 9.96973 10.75 9.62598 10.75H7.12598C6.78223 10.75 6.50098 10.4688 6.50098 10.1238C6.50098 9.77875 6.78223 9.5 7.12598 9.5Z"
      fill="#414141"/>
  <path
      d="M7.12598 12H9.62598C9.96973 12 10.251 12.2788 10.251 12.6238C10.251 12.9688 9.96973 13.25 9.62598 13.25H7.12598C6.78223 13.25 6.50098 12.9688 6.50098 12.6238C6.50098 12.2788 6.78223 12 7.12598 12Z"
      fill="#414141"/>
  <path
      d="M12.126 12H14.626C14.9697 12 15.251 12.2788 15.251 12.6238C15.251 12.9688 14.9697 13.25 14.626 13.25H12.126C11.7822 13.25 11.501 12.9688 11.501 12.6238C11.501 12.2788 11.7822 12 12.126 12Z"
      fill="#414141"/>
  <path
      d="M17.126 12H19.626C19.9697 12 20.251 12.2788 20.251 12.6238C20.251 12.9688 19.9697 13.25 19.626 13.25H17.126C16.7822 13.25 16.501 12.9688 16.501 12.6238C16.501 12.2788 16.7822 12 17.126 12Z"
      fill="#414141"/>
  <path
      d="M12.126 9.5H17.126C17.4697 9.5 17.751 9.77875 17.751 10.1238C17.751 10.4688 17.4697 10.75 17.126 10.75H12.126C11.7822 10.75 11.501 10.4688 11.501 10.1238C11.501 9.77875 11.7822 9.5 12.126 9.5Z"
      fill="#414141"/>
  <path
      d="M7.12354 15.75H20.8735C21.2173 15.75 21.4985 16.0313 21.4985 16.3763C21.4985 16.72 21.2173 17 20.8735 17H7.12354C6.77854 17 6.49854 16.72 6.49854 16.3763C6.49854 16.0313 6.77854 15.75 7.12354 15.75Z"
      fill="#414141"/>
  <circle cx="7.12598" cy="18.875" r="0.625" fill="#414141"/>
  <circle cx="9.62598" cy="18.875" r="0.625" fill="#414141"/>
  <ellipse cx="12.126" cy="18.875" rx="0.625" ry="0.625" fill="#414141"/>
  <circle cx="14.626" cy="18.875" r="0.625" fill="#414141"/>
  <circle cx="17.126" cy="18.875" r="0.625" fill="#414141"/>
  <ellipse cx="19.626" cy="18.875" rx="0.625" ry="0.625" fill="#414141"/>
</svg>