<svg width="28" height="28" viewBox="0 0 28 28" fill="none" xmlns="http://www.w3.org/2000/svg">
<path d="M21.25 4H11.25C10.5588 4 10 4.56 10 5.25125V6.50125H11.25V5.87625C11.25 5.53 11.53 5.25125 11.875 5.25125H20.625C20.9688 5.25125 21.25 5.53 21.25 5.87625V18.3763C21.25 18.72 20.9688 19.0013 20.625 19.0013H20V20.2513H21.25C21.9412 20.2513 22.5 19.6925 22.5 19.0013V5.25125C22.5 4.56 21.9412 4 21.25 4ZM17.5 7.75H6.25C5.55875 7.75 5 8.30875 5 9V22.75C5 23.4412 5.55875 24 6.25 24H17.5C18.1912 24 18.75 23.4412 18.75 22.75V9C18.75 8.30875 18.1912 7.75 17.5 7.75ZM17.5 22.125C17.5 22.4688 17.2188 22.75 16.875 22.75H6.875C6.53 22.75 6.25 22.4688 6.25 22.125V9.625C6.25 9.28125 6.53 9 6.875 9H16.875C17.2188 9 17.5 9.28125 17.5 9.625V22.125Z" fill="#414141"/>
</svg>
