<svg width="17" height="20" viewBox="0 0 17 20" fill="none" xmlns="http://www.w3.org/2000/svg">
  <path fill-rule="evenodd" clip-rule="evenodd"
        d="M15.0015 6.24907V18.7483C15.0015 19.0771 14.8722 19.3926 14.6414 19.6267C14.4107 19.8608 14.097 19.9947 13.7683 19.9994H2.50224C2.33772 20.0002 2.17468 19.9684 2.02252 19.9058C1.87037 19.8432 1.73214 19.7511 1.6158 19.6348C1.49946 19.5184 1.40734 19.3802 1.34474 19.228C1.28215 19.0759 1.25033 18.9128 1.25112 18.7483V6.24907C0.919304 6.24907 0.601076 6.11726 0.366445 5.88263C0.131814 5.648 0 5.32977 0 4.99795L0 3.74683C0.0015827 3.41605 0.134095 3.09935 0.368555 2.86602C0.603015 2.63268 0.920339 2.50169 1.25112 2.50169H4.9985V0.628C4.9942 0.544323 5.00752 0.460675 5.03758 0.382468C5.06765 0.304261 5.1138 0.233237 5.17305 0.17399C5.23229 0.114743 5.30332 0.0685937 5.38153 0.038527C5.45973 0.00846035 5.54338 -0.00485376 5.62706 -0.000553976H10.6256C10.7068 -0.000655538 10.7871 0.015762 10.8618 0.0476998C10.9364 0.0796377 11.0038 0.126428 11.0598 0.185225C11.1158 0.244022 11.1592 0.313596 11.1875 0.389715C11.2158 0.465834 11.2282 0.546906 11.2242 0.628V2.50169H14.9776C15.3083 2.50169 15.6257 2.63268 15.8601 2.86602C16.0946 3.09935 16.2271 3.41605 16.2287 3.74683V4.99795C16.2287 5.32566 16.1002 5.64031 15.8707 5.87427C15.6413 6.10822 15.3291 6.2428 15.0015 6.24907ZM2.50224 6.87763V18.1258C2.50224 18.2845 2.56531 18.4368 2.67758 18.549C2.78984 18.6613 2.9421 18.7244 3.10087 18.7244H13.1278C13.2866 18.7244 13.4388 18.6613 13.5511 18.549C13.6634 18.4368 13.7264 18.2845 13.7264 18.1258V6.24907H2.50224V6.87763ZM10.003 1.25057H6.24963V2.50169H10.003V1.25057ZM14.367 3.74683H1.87369C1.70778 3.74683 1.54867 3.81273 1.43135 3.93005C1.31404 4.04737 1.24813 4.20648 1.24813 4.37239C1.24813 4.5383 1.31404 4.69741 1.43135 4.81473C1.54867 4.93204 1.70778 4.99795 1.87369 4.99795H14.367C14.5329 4.99795 14.692 4.93204 14.8093 4.81473C14.9266 4.69741 14.9925 4.5383 14.9925 4.37239C14.9925 4.20648 14.9266 4.04737 14.8093 3.93005C14.692 3.81273 14.5329 3.74683 14.367 3.74683ZM6.24364 17.5152H4.9985V8.75132H6.24963L6.24364 17.5152ZM8.74588 17.5152H7.50075V8.75132H8.75187L8.74588 17.5152ZM11.2421 17.5152H10.003V8.75132H11.2481L11.2421 17.5152Z"
        fill="currentColor"/>
</svg>
