<svg width="17" height="20" viewBox="0 0 17 20" fill="none" xmlns="http://www.w3.org/2000/svg">
  <path fill-rule="evenodd" clip-rule="evenodd"
        d="M15.0015 6.24895V18.7482C15.0015 19.0769 14.8722 19.3925 14.6414 19.6266C14.4107 19.8607 14.097 19.9946 13.7683 19.9993H2.50224C2.33772 20.0001 2.17468 19.9683 2.02252 19.9057C1.87037 19.8431 1.73214 19.751 1.6158 19.6346C1.49946 19.5183 1.40734 19.3801 1.34474 19.2279C1.28215 19.0758 1.25033 18.9127 1.25112 18.7482V6.24895C0.919304 6.24895 0.601076 6.11714 0.366445 5.8825C0.131814 5.64787 0 5.32965 0 4.99783L0 3.74671C0.0015827 3.41593 0.134095 3.09923 0.368555 2.8659C0.603015 2.63256 0.920339 2.50156 1.25112 2.50157H4.9985V0.627878C4.9942 0.544201 5.00752 0.460553 5.03758 0.382346C5.06765 0.304139 5.1138 0.233115 5.17305 0.173868C5.23229 0.114621 5.30332 0.0684716 5.38153 0.0384049C5.45973 0.00833828 5.54338 -0.00497583 5.62706 -0.000676047H10.6256C10.7068 -0.000777608 10.7871 0.0156399 10.8618 0.0475778C10.9364 0.0795156 11.0038 0.126306 11.0598 0.185103C11.1158 0.2439 11.1592 0.313474 11.1875 0.389593C11.2158 0.465712 11.2282 0.546784 11.2242 0.627878V2.50157H14.9776C15.3083 2.50156 15.6257 2.63256 15.8601 2.8659C16.0946 3.09923 16.2271 3.41593 16.2287 3.74671V4.99783C16.2287 5.32554 16.1002 5.64019 15.8707 5.87415C15.6413 6.1081 15.3291 6.24268 15.0015 6.24895ZM2.50224 6.8775V18.1256C2.50224 18.2844 2.56531 18.4367 2.67758 18.5489C2.78984 18.6612 2.9421 18.7243 3.10087 18.7243H13.1278C13.2866 18.7243 13.4388 18.6612 13.5511 18.5489C13.6634 18.4367 13.7264 18.2844 13.7264 18.1256V6.24895H2.50224V6.8775ZM10.003 1.25045H6.24963V2.50157H10.003V1.25045ZM14.367 3.74671H1.87369C1.70778 3.74671 1.54867 3.81261 1.43135 3.92993C1.31404 4.04724 1.24813 4.20636 1.24813 4.37227C1.24813 4.53818 1.31404 4.69729 1.43135 4.8146C1.54867 4.93192 1.70778 4.99783 1.87369 4.99783H14.367C14.5329 4.99783 14.692 4.93192 14.8093 4.8146C14.9266 4.69729 14.9925 4.53818 14.9925 4.37227C14.9925 4.20636 14.9266 4.04724 14.8093 3.92993C14.692 3.81261 14.5329 3.74671 14.367 3.74671ZM6.24364 17.515H4.9985V8.75119H6.24963L6.24364 17.515ZM8.74588 17.515H7.50075V8.75119H8.75187L8.74588 17.515ZM11.2421 17.515H10.003V8.75119H11.2481L11.2421 17.515Z"
        fill="#ffffff"/>
</svg>
