<svg width="16" height="16" viewBox="0 0 16 16" fill="none" xmlns="http://www.w3.org/2000/svg">
<path d="M9.99902 5.49999C9.99902 5.49999 10.999 4.99899 11.999 4.99899C12.999 4.99899 13.499 5.49999 13.499 5.49999V4.49899C13.499 4.49899 12.936 3.99899 11.905 3.99899C10.937 3.99899 9.99902 4.49899 9.99902 4.49899V5.49999ZM2.49902 7.49899V8.49899C2.49902 8.49899 2.99902 7.99899 3.99902 7.99899C4.99902 7.99899 5.99902 8.49899 5.99902 8.49899V7.49899C5.99902 7.49899 4.93602 6.99899 3.90502 6.99899C2.93802 6.99899 2.49902 7.49899 2.49902 7.49899ZM2.49902 10.499V11.499C2.49902 11.499 2.99902 10.999 3.99902 10.999C4.99902 10.999 5.99902 11.499 5.99902 11.499V10.499C5.99902 10.499 4.93602 9.99899 3.90502 9.99899C2.93802 9.99899 2.49902 10.499 2.49902 10.499ZM2.49902 4.49899V5.49999C2.49902 5.49999 2.99902 4.99899 3.99902 4.99899C4.99902 4.99899 5.99902 5.49999 5.99902 5.49999V4.49899C5.99902 4.49899 4.93602 3.99899 3.90502 3.99899C2.93802 3.99899 2.49902 4.49899 2.49902 4.49899ZM9.99902 7.49899V8.49899C9.99902 8.49899 10.999 7.99899 11.999 7.99899C12.999 7.99899 13.499 8.49899 13.499 8.49899V7.49899C13.499 7.49899 12.936 6.99899 11.905 6.99899C10.938 6.99899 9.99902 7.49899 9.99902 7.49899ZM9.99902 10.499V11.499C9.99902 11.499 10.999 10.999 11.999 10.999C12.999 10.999 13.499 11.499 13.499 11.499V10.499C13.499 10.499 12.936 9.99899 11.905 9.99899C10.938 9.99899 9.99902 10.499 9.99902 10.499ZM11.53 0.498993C9.69802 0.498993 7.99902 1.49999 7.99902 1.49999C7.99902 1.49999 6.30002 0.498993 4.46802 0.498993C2.32402 0.498993 0.499023 1.49999 0.499023 1.49999V15.5C0.499023 15.5 2.39302 14.5 4.56202 14.5C6.35802 14.5 8.00002 15.5 8.00002 15.5C8.00002 15.5 9.64202 14.5 11.438 14.5C13.607 14.5 15.501 15.5 15.501 15.5V1.49999C15.499 1.49999 13.674 0.498993 11.53 0.498993ZM7.49902 13.876C6.85002 13.728 5.65402 13.499 4.45202 13.499C2.71802 13.499 1.49902 13.999 1.49902 13.999V2.49899C1.49902 2.49899 2.74902 1.49999 4.49902 1.49999C5.68602 1.49999 6.85702 1.95399 7.49902 2.25099V13.876ZM14.499 13.999C14.499 13.999 13.28 13.499 11.546 13.499C10.344 13.499 9.14902 13.728 8.49902 13.876V2.24999C9.14102 1.95299 10.313 1.49899 11.499 1.49899C13.249 1.49899 14.499 2.49799 14.499 2.49799V13.999Z"
      fill="currentColor"/>
</svg>
