<svg width="14" height="16" viewBox="0 0 14 16" fill="none" xmlns="http://www.w3.org/2000/svg">
<path d="M0.999023 2.49899C0.447023 2.49899 -0.000976562 2.94599 -0.000976562 3.49799V14.498C-0.000976562 15.051 0.447023 15.499 0.999023 15.499H11.999C12.552 15.499 12.999 15.051 12.999 14.498H0.999023V2.49899ZM4.49902 4.49799H8.49902C8.77402 4.49799 8.99902 4.27399 8.99902 3.99899C8.99902 3.72199 8.77402 3.49799 8.49902 3.49799H4.49902C4.22302 3.49799 3.99902 3.72199 3.99902 3.99899C3.99902 4.27399 4.22302 4.49799 4.49902 4.49799ZM11.499 6.49799H4.49902C4.22302 6.49799 3.99902 6.72299 3.99902 6.99799C3.99902 7.27399 4.22302 7.49799 4.49902 7.49799H11.499C11.774 7.49799 11.999 7.27399 11.999 6.99799C11.999 6.72299 11.774 6.49799 11.499 6.49799ZM11.499 9.49799H4.49902C4.22302 9.49799 3.99902 9.72299 3.99902 9.99799C3.99902 10.274 4.22302 10.499 4.49902 10.499H11.499C11.774 10.499 11.999 10.274 11.999 9.99799C11.999 9.72299 11.774 9.49799 11.499 9.49799ZM12.999 0.498993H2.99902C2.44702 0.498993 1.99902 0.945993 1.99902 1.49899V12.499C1.99902 13.051 2.44702 13.498 2.99902 13.498H12.999C13.552 13.498 13.999 13.051 13.999 12.499V1.49899C13.999 0.945993 13.552 0.498993 12.999 0.498993ZM12.999 11.999C12.999 12.274 12.774 12.499 12.499 12.499H3.49902C3.22302 12.499 2.99902 12.274 2.99902 11.999V1.99799C2.99902 1.72299 3.22302 1.49899 3.49902 1.49899H12.499C12.774 1.49899 12.999 1.72299 12.999 1.99799V11.999Z" fill="#414141"/>
</svg>
