<svg width="28" height="28" viewBox="0 0 28 28" fill="none" xmlns="http://www.w3.org/2000/svg">
<path d="M21 17.4983H10.5C10.017 17.4983 9.625 17.8885 9.625 18.3733C9.625 18.8545 10.017 19.2483 10.5 19.2483H21C21.483 19.2483 21.875 18.8545 21.875 18.3733C21.875 17.8885 21.483 17.4983 21 17.4983ZM24.5 -0.00170898H3.5C2.051 -0.00170898 0.875 1.17429 0.875 2.62329V25.3733C0.875 26.8223 2.051 27.9983 3.5 27.9983H24.5C25.9508 27.9983 27.125 26.8223 27.125 25.3733V2.62329C27.125 1.17254 25.9508 -0.00170898 24.5 -0.00170898ZM4.375 25.3733C4.375 25.8545 3.983 26.2483 3.5 26.2483C3.017 26.2483 2.625 25.8545 2.625 25.3733V2.62329C2.625 2.14029 3.017 1.75004 3.5 1.75004C3.983 1.75004 4.375 2.14204 4.375 2.62329V25.3733ZM25.375 25.3733C25.375 25.8545 24.983 26.2483 24.5 26.2483H6.125V1.75004H24.5C24.983 1.75004 25.375 2.14204 25.375 2.62329V25.3733ZM21 6.99829H10.5C10.017 6.99829 9.625 7.39204 9.625 7.87329C9.625 8.35804 10.017 8.75004 10.5 8.75004H21C21.483 8.75004 21.875 8.35804 21.875 7.87329C21.875 7.39029 21.483 6.99829 21 6.99829ZM21 12.2483H10.5C10.017 12.2483 9.625 12.642 9.625 13.1233C9.625 13.6063 10.017 13.9983 10.5 13.9983H21C21.483 13.9983 21.875 13.6063 21.875 13.1233C21.875 12.6403 21.483 12.2483 21 12.2483Z" fill="currentColor"/>
</svg>
