<svg width="28" height="24" viewBox="0 0 28 24" fill="none" xmlns="http://www.w3.org/2000/svg">
<path d="M23.625 12.8698H18.375C17.8937 12.8698 17.5 13.2635 17.5 13.7448C17.5 14.2295 17.8937 14.6198 18.375 14.6198H23.625C24.1063 14.6198 24.5 14.2295 24.5 13.7448C24.5 13.2635 24.1063 12.8698 23.625 12.8698ZM23.625 16.3698H18.375C17.8937 16.3698 17.5 16.7635 17.5 17.2448C17.5 17.7295 17.8937 18.1198 18.375 18.1198H23.625C24.1063 18.1198 24.5 17.7295 24.5 17.2448C24.5 16.7635 24.1063 16.3698 23.625 16.3698ZM9.625 5.87154C6.24225 5.87154 3.5 8.61379 3.5 11.9965C3.5 15.3793 6.24225 18.1215 9.625 18.1215C13.0077 18.1215 15.75 15.381 15.75 11.9965C15.75 8.61379 13.0077 5.87154 9.625 5.87154ZM9.625 16.3698C7.20825 16.3698 5.25 14.4115 5.25 11.9948C5.25 9.57979 7.20825 7.61979 9.625 7.61979C12.04 7.61979 14 9.57979 14 11.9948C14 14.4115 12.04 16.3698 9.625 16.3698ZM22.75 0.623291H5.25C2.35025 0.623291 0 2.97529 0 5.87329V18.1233C0 21.0213 2.35025 23.3733 5.25 23.3733H22.75C25.648 23.3733 28 21.0213 28 18.1233V5.87329C28 2.97354 25.648 0.623291 22.75 0.623291ZM26.25 18.1233C26.25 20.0553 24.682 21.6233 22.75 21.6233H5.25C3.31975 21.6233 1.75 20.0553 1.75 18.1233V5.87329C1.75 3.94304 3.31975 2.37329 5.25 2.37329H22.75C24.682 2.37329 26.25 3.94304 26.25 5.87329V18.1233ZM23.625 5.87154H18.375C17.8937 5.87154 17.5 6.26529 17.5 6.74829C17.5 7.22954 17.8937 7.62154 18.375 7.62154H23.625C24.1063 7.62154 24.5 7.22954 24.5 6.74829C24.5 6.26354 24.1063 5.87154 23.625 5.87154ZM23.625 9.37329H18.375C17.8937 9.37329 17.5 9.76354 17.5 10.2465C17.5 10.7295 17.8937 11.1215 18.375 11.1215H23.625C24.1063 11.1215 24.5 10.7295 24.5 10.2465C24.5 9.76354 24.1063 9.37329 23.625 9.37329Z" fill="currentColor"/>
</svg>
