<svg width="20" height="14" viewBox="0 0 20 14" fill="none" xmlns="http://www.w3.org/2000/svg">
  <path
      d="M6.92873 13.2398L6.92304 13.2455L6.91754 13.2514C6.9082 13.2614 6.8969 13.2694 6.88436 13.2748C6.87182 13.2802 6.8583 13.283 6.84463 13.283C6.83096 13.283 6.81743 13.2802 6.80489 13.2748C6.79235 13.2694 6.78106 13.2614 6.77171 13.2514L6.76609 13.2454L6.76027 13.2396L0.539513 7.01884L0.531084 7.01041L0.522264 7.00239C0.511963 6.99303 0.503734 6.98162 0.498103 6.96889C0.492472 6.95616 0.489563 6.9424 0.489563 6.92848C0.489563 6.91456 0.492472 6.9008 0.498103 6.88807C0.503734 6.87534 0.511964 6.86393 0.522262 6.85457L0.538542 6.83977L0.553459 6.8236C0.562813 6.81347 0.574165 6.80537 0.5868 6.79984C0.599436 6.7943 0.613081 6.79145 0.626871 6.79145C0.640661 6.79145 0.654306 6.7943 0.666945 6.79984C0.679578 6.80537 0.69093 6.81347 0.700283 6.8236L0.70711 6.831L0.71423 6.83812L6.49707 12.621L6.85063 12.9745L7.20418 12.621L19.2829 0.542215C19.3064 0.522256 19.3362 0.51123 19.3671 0.51123C19.396 0.51123 19.424 0.520883 19.4467 0.538479C19.4656 0.561592 19.4761 0.590635 19.4761 0.620742C19.4761 0.654246 19.4631 0.686433 19.44 0.710596C19.4397 0.71095 19.4393 0.711303 19.439 0.711654L6.92873 13.2398Z"
      fill="currentColor" stroke="currentColor"/>
</svg>
